<svg xmlns="http://www.w3.org/2000/svg" xmlns:xlink="http://www.w3.org/1999/xlink" width="24" zoomAndPan="magnify" viewBox="0 0 375 374.999991" height="24" preserveAspectRatio="xMidYMid meet" version="1.0"><defs><clipPath id="2faa5e77f8"><path d="M 193 90.648438 L 345.878906 90.648438 L 345.878906 252 L 193 252 Z M 193 90.648438 " clip-rule="nonzero"/></clipPath><clipPath id="df1bc0fae8"><path d="M 29.378906 90.648438 L 182 90.648438 L 182 252 L 29.378906 252 Z M 29.378906 90.648438 " clip-rule="nonzero"/></clipPath><clipPath id="5db1b97303"><path d="M 106 113 L 269 113 L 269 284.148438 L 106 284.148438 Z M 106 113 " clip-rule="nonzero"/></clipPath></defs><g clip-path="url(#2faa5e77f8)"><path fill="#a6a6a6" d="M 345.492188 230.964844 C 344.964844 216.839844 337.121094 204.019531 324.234375 194.558594 C 318.28125 190.195312 311.257812 186.542969 303.375 183.820312 C 314.90625 174.160156 322.242188 159.664062 322.242188 143.445312 C 322.242188 114.371094 298.671875 90.796875 269.59375 90.796875 C 240.515625 90.796875 216.945312 114.371094 216.945312 143.445312 C 216.945312 159.664062 224.285156 174.160156 235.8125 183.820312 C 227.929688 186.542969 220.914062 190.195312 214.964844 194.558594 C 202.078125 204.015625 194.242188 216.839844 193.699219 230.964844 C 193.507812 235.921875 194.054688 240.09375 195.210938 243.648438 C 214.902344 248.515625 240.984375 251.480469 269.59375 251.480469 C 298.277344 251.480469 324.414062 248.5 344.125 243.617188 C 345.183594 240.0625 345.675781 235.898438 345.492188 230.964844 " fill-opacity="1" fill-rule="nonzero"/></g><g clip-path="url(#df1bc0fae8)"><path fill="#a6a6a6" d="M 181.390625 230.964844 C 180.867188 216.839844 173.023438 204.019531 160.132812 194.558594 C 154.183594 190.195312 147.15625 186.542969 139.277344 183.820312 C 150.808594 174.160156 158.144531 159.664062 158.144531 143.445312 C 158.144531 114.371094 134.570312 90.796875 105.496094 90.796875 C 76.417969 90.796875 52.847656 114.371094 52.847656 143.445312 C 52.847656 159.664062 60.1875 174.160156 71.714844 183.820312 C 63.832031 186.542969 56.8125 190.195312 50.863281 194.558594 C 37.980469 204.015625 30.140625 216.839844 29.601562 230.964844 C 29.410156 235.921875 29.957031 240.09375 31.109375 243.648438 C 50.804688 248.515625 76.886719 251.480469 105.496094 251.480469 C 134.179688 251.480469 160.316406 248.5 180.027344 243.617188 C 181.085938 240.0625 181.574219 235.898438 181.390625 230.964844 " fill-opacity="1" fill-rule="nonzero"/></g><g clip-path="url(#5db1b97303)"><path fill="#d9d9d9" d="M 268.226562 262.492188 C 267.667969 247.480469 259.328125 233.84375 245.628906 223.792969 C 239.300781 219.148438 231.835938 215.273438 223.457031 212.371094 C 235.714844 202.109375 243.511719 186.699219 243.511719 169.457031 C 243.511719 138.546875 218.457031 113.488281 187.546875 113.488281 C 156.632812 113.488281 131.578125 138.546875 131.578125 169.457031 C 131.578125 186.699219 139.378906 202.109375 151.632812 212.375 C 143.257812 215.273438 135.792969 219.148438 129.472656 223.792969 C 115.773438 233.84375 107.441406 247.480469 106.863281 262.492188 C 106.664062 267.761719 107.246094 272.199219 108.472656 275.972656 C 129.410156 281.152344 157.132812 284.300781 187.546875 284.300781 C 218.035156 284.300781 245.820312 281.132812 266.773438 275.941406 C 267.898438 272.160156 268.417969 267.734375 268.226562 262.492188 " fill-opacity="1" fill-rule="nonzero"/></g></svg>