<svg xmlns="http://www.w3.org/2000/svg" xmlns:xlink="http://www.w3.org/1999/xlink" width="24" zoomAndPan="magnify" viewBox="0 0 375 374.999991" height="24" preserveAspectRatio="xMidYMid meet" version="1.0"><defs><clipPath id="356af6040a"><path d="M 63.839844 63.839844 L 311.339844 63.839844 L 311.339844 311.339844 L 63.839844 311.339844 Z M 63.839844 63.839844 " clip-rule="nonzero"/></clipPath><clipPath id="1cbef77f80"><path d="M 110 63.839844 L 226 63.839844 L 226 150 L 110 150 Z M 110 63.839844 " clip-rule="nonzero"/></clipPath><clipPath id="d8ae38e4e9"><path d="M 93 174 L 282 174 L 282 311.339844 L 93 311.339844 Z M 93 174 " clip-rule="nonzero"/></clipPath><clipPath id="9c80eb53a6"><path d="M 93 63.839844 L 116 63.839844 L 116 150 L 93 150 Z M 93 63.839844 " clip-rule="nonzero"/></clipPath><clipPath id="39641c085e"><path d="M 238 63.839844 L 248 63.839844 L 248 90 L 238 90 Z M 238 63.839844 " clip-rule="nonzero"/></clipPath></defs><g clip-path="url(#356af6040a)"><path fill="#d9d9d9" d="M 311.152344 132.03125 L 311.152344 294.097656 C 311.152344 303.507812 303.523438 311.152344 294.097656 311.152344 L 80.898438 311.152344 C 71.488281 311.152344 63.839844 303.507812 63.839844 294.097656 L 63.839844 80.898438 C 63.839844 71.46875 71.488281 63.839844 80.898438 63.839844 L 242.964844 63.839844 C 245.679688 63.839844 248.277344 64.925781 250.191406 66.839844 L 308.15625 124.804688 C 310.070312 126.71875 311.152344 129.316406 311.152344 132.03125 " fill-opacity="1" fill-rule="nonzero"/></g><g clip-path="url(#1cbef77f80)"><path fill="#ffffff" d="M 225.875 63.839844 L 225.875 140.59375 C 225.875 145.273438 222.027344 149.121094 217.347656 149.121094 L 115.007812 149.121094 L 110.746094 144.859375 L 110.746094 63.839844 L 225.875 63.839844 " fill-opacity="1" fill-rule="nonzero"/></g><g clip-path="url(#d8ae38e4e9)"><path fill="#ffffff" d="M 272.777344 174.707031 L 102.21875 174.707031 C 97.503906 174.707031 93.691406 178.519531 93.691406 183.234375 L 93.691406 311.152344 L 281.304688 311.152344 L 281.304688 183.234375 C 281.304688 178.519531 277.492188 174.707031 272.777344 174.707031 " fill-opacity="1" fill-rule="nonzero"/></g><path fill="#a6a6a6" d="M 204.554688 132.066406 L 187.496094 132.066406 C 185.148438 132.066406 183.234375 130.148438 183.234375 127.800781 L 183.234375 85.160156 C 183.234375 82.8125 185.148438 80.898438 187.496094 80.898438 L 204.554688 80.898438 C 206.902344 80.898438 208.816406 82.8125 208.816406 85.160156 L 208.816406 127.800781 C 208.816406 130.148438 206.902344 132.066406 204.554688 132.066406 " fill-opacity="1" fill-rule="nonzero"/><g clip-path="url(#9c80eb53a6)"><path fill="#737373" d="M 115.007812 63.839844 L 115.007812 149.121094 L 102.21875 149.121094 C 97.519531 149.121094 93.691406 145.273438 93.691406 140.59375 L 93.691406 63.839844 L 115.007812 63.839844 " fill-opacity="1" fill-rule="nonzero"/></g><path fill="#a6a6a6" d="M 259.984375 221.609375 L 115.007812 221.609375 C 112.660156 221.609375 110.746094 219.695312 110.746094 217.347656 C 110.746094 214.996094 112.660156 213.082031 115.007812 213.082031 L 259.984375 213.082031 C 262.335938 213.082031 264.25 214.996094 264.25 217.347656 C 264.25 219.695312 262.335938 221.609375 259.984375 221.609375 " fill-opacity="1" fill-rule="nonzero"/><path fill="#a6a6a6" d="M 259.984375 251.457031 L 115.007812 251.457031 C 112.660156 251.457031 110.746094 249.542969 110.746094 247.195312 C 110.746094 244.84375 112.660156 242.929688 115.007812 242.929688 L 259.984375 242.929688 C 262.335938 242.929688 264.25 244.84375 264.25 247.195312 C 264.25 249.542969 262.335938 251.457031 259.984375 251.457031 " fill-opacity="1" fill-rule="nonzero"/><path fill="#a6a6a6" d="M 259.984375 281.304688 L 115.007812 281.304688 C 112.660156 281.304688 110.746094 279.390625 110.746094 277.042969 C 110.746094 274.691406 112.660156 272.777344 115.007812 272.777344 L 259.984375 272.777344 C 262.335938 272.777344 264.25 274.691406 264.25 277.042969 C 264.25 279.390625 262.335938 281.304688 259.984375 281.304688 " fill-opacity="1" fill-rule="nonzero"/><g clip-path="url(#39641c085e)"><path fill="#a6a6a6" d="M 247.242188 64.773438 L 247.195312 85.160156 C 247.195312 87.511719 245.277344 89.425781 242.929688 89.425781 C 240.582031 89.425781 238.664062 87.511719 238.664062 85.160156 L 238.714844 63.839844 L 242.980469 63.839844 C 244.460938 63.839844 245.910156 64.191406 247.242188 64.773438 " fill-opacity="1" fill-rule="nonzero"/></g><path fill="#a6a6a6" d="M 230.136719 204.554688 L 230.136719 281.304688 C 230.136719 288.367188 211.050781 294.097656 187.496094 294.097656 C 163.945312 294.097656 144.859375 288.367188 144.859375 281.304688 L 144.859375 204.554688 L 230.136719 204.554688 " fill-opacity="1" fill-rule="nonzero"/><path fill="#d9d9d9" d="M 230.136719 204.554688 C 230.136719 211.617188 211.050781 217.347656 187.496094 217.347656 C 163.945312 217.347656 144.859375 211.617188 144.859375 204.554688 C 144.859375 197.492188 163.945312 191.761719 187.496094 191.761719 C 211.050781 191.761719 230.136719 197.492188 230.136719 204.554688 " fill-opacity="1" fill-rule="nonzero"/><path fill="#d9d9d9" d="M 144.859375 255.722656 C 144.859375 262.785156 163.945312 268.515625 187.496094 268.515625 C 211.050781 268.515625 230.136719 262.785156 230.136719 255.722656 L 230.136719 230.136719 C 230.136719 237.199219 211.050781 242.929688 187.496094 242.929688 C 163.945312 242.929688 144.859375 237.199219 144.859375 230.136719 L 144.859375 255.722656 " fill-opacity="1" fill-rule="nonzero"/></svg>