<svg xmlns="http://www.w3.org/2000/svg" xmlns:xlink="http://www.w3.org/1999/xlink" width="24" zoomAndPan="magnify" viewBox="0 0 375 374.999991" height="24" preserveAspectRatio="xMidYMid meet" version="1.0"><defs><clipPath id="2e8c53afa9"><path d="M 38.355469 113.09375 L 337.511719 113.09375 L 337.511719 274.660156 L 38.355469 274.660156 Z M 38.355469 113.09375 " clip-rule="nonzero"/></clipPath><clipPath id="12159d3406"><path d="M 55.605469 113.09375 L 320.25 113.09375 C 329.777344 113.09375 337.5 120.816406 337.5 130.34375 L 337.5 257.410156 C 337.5 266.9375 329.777344 274.660156 320.25 274.660156 L 55.605469 274.660156 C 46.078125 274.660156 38.355469 266.9375 38.355469 257.410156 L 38.355469 130.34375 C 38.355469 120.816406 46.078125 113.09375 55.605469 113.09375 Z M 55.605469 113.09375 " clip-rule="nonzero"/></clipPath><clipPath id="5ca2a55031"><path d="M 51.800781 100.339844 L 327.800781 100.339844 L 327.800781 264.589844 L 51.800781 264.589844 Z M 51.800781 100.339844 " clip-rule="nonzero"/></clipPath></defs><g clip-path="url(#2e8c53afa9)"><g clip-path="url(#12159d3406)"><path fill="#d9d9d9" d="M 38.355469 113.09375 L 337.511719 113.09375 L 337.511719 274.660156 L 38.355469 274.660156 Z M 38.355469 113.09375 " fill-opacity="1" fill-rule="nonzero"/></g></g><g clip-path="url(#5ca2a55031)"><path fill="#a6a6a6" d="M 307.6875 100.355469 L 71.859375 100.355469 C 60.773438 100.355469 51.800781 109.328125 51.800781 120.414062 L 51.800781 244.40625 C 51.800781 255.496094 60.773438 264.464844 71.859375 264.464844 L 307.6875 264.464844 C 318.773438 264.464844 327.742188 255.496094 327.742188 244.40625 L 327.742188 120.414062 C 327.742188 109.328125 318.773438 100.355469 307.6875 100.355469 Z M 109.640625 118.515625 C 110.226562 118.515625 110.789062 118.535156 111.355469 118.570312 C 111.554688 118.589844 111.757812 118.609375 111.9375 118.609375 C 111.9375 118.609375 111.957031 118.609375 111.957031 118.609375 C 112.15625 118.625 112.339844 118.644531 112.523438 118.664062 C 112.539062 118.664062 112.539062 118.664062 112.558594 118.664062 C 112.742188 118.679688 112.925781 118.699219 113.125 118.734375 C 113.144531 118.734375 113.160156 118.734375 113.160156 118.734375 C 113.34375 118.753906 113.527344 118.789062 113.707031 118.828125 C 113.726562 118.828125 113.746094 118.828125 113.746094 118.828125 C 113.925781 118.863281 114.109375 118.882812 114.292969 118.917969 C 114.308594 118.917969 114.328125 118.917969 114.328125 118.9375 C 114.511719 118.972656 114.691406 119.007812 114.875 119.046875 C 114.894531 119.046875 114.894531 119.046875 114.910156 119.046875 C 115.09375 119.082031 115.277344 119.117188 115.457031 119.171875 C 115.476562 119.171875 115.476562 119.171875 115.496094 119.171875 C 115.675781 119.210938 115.859375 119.265625 116.042969 119.300781 C 116.042969 119.300781 116.058594 119.300781 116.058594 119.300781 C 116.242188 119.355469 116.425781 119.394531 116.605469 119.449219 C 119.03125 120.140625 121.3125 121.179688 123.390625 122.527344 C 123.390625 122.527344 123.410156 122.527344 123.410156 122.546875 C 123.554688 122.636719 123.699219 122.730469 123.847656 122.839844 C 123.863281 122.855469 123.882812 122.855469 123.902344 122.875 C 124.027344 122.964844 124.175781 123.058594 124.300781 123.148438 C 124.320312 123.167969 124.355469 123.183594 124.375 123.203125 C 124.503906 123.292969 124.628906 123.386719 124.757812 123.476562 C 124.792969 123.496094 124.8125 123.511719 124.847656 123.550781 C 124.976562 123.640625 125.085938 123.734375 125.195312 123.824219 C 125.230469 123.84375 125.269531 123.878906 125.304688 123.898438 C 125.414062 123.988281 125.523438 124.078125 125.652344 124.171875 C 125.6875 124.207031 125.722656 124.226562 125.761719 124.261719 C 125.871094 124.351562 125.980469 124.445312 126.089844 124.535156 C 126.125 124.570312 126.160156 124.609375 126.199219 124.625 C 126.308594 124.71875 126.398438 124.808594 126.507812 124.898438 C 126.546875 124.9375 126.582031 124.972656 126.617188 125.007812 L 126.910156 125.28125 C 126.945312 125.320312 126.984375 125.355469 127.019531 125.390625 C 127.109375 125.484375 127.21875 125.574219 127.3125 125.683594 C 127.347656 125.71875 127.382812 125.757812 127.421875 125.8125 C 127.511719 125.902344 127.601562 125.992188 127.710938 126.101562 C 127.75 126.140625 127.785156 126.195312 127.839844 126.230469 C 127.929688 126.320312 128.023438 126.429688 128.113281 126.523438 C 128.148438 126.558594 128.1875 126.613281 128.222656 126.648438 C 128.3125 126.742188 128.40625 126.851562 128.496094 126.941406 C 128.53125 126.976562 128.570312 127.03125 128.605469 127.070312 C 128.695312 127.179688 128.789062 127.269531 128.859375 127.378906 C 128.898438 127.414062 128.933594 127.46875 128.96875 127.507812 C 129.0625 127.617188 129.132812 127.707031 129.226562 127.816406 C 129.261719 127.851562 129.296875 127.890625 129.316406 127.945312 C 129.40625 128.054688 129.480469 128.164062 129.570312 128.273438 C 129.589844 128.308594 129.625 128.347656 129.644531 128.382812 C 129.734375 128.492188 129.828125 128.621094 129.898438 128.730469 C 129.917969 128.746094 129.9375 128.785156 129.953125 128.800781 C 130.355469 129.347656 130.71875 129.933594 131.085938 130.515625 C 131.105469 130.550781 131.121094 130.589844 131.160156 130.625 C 131.214844 130.734375 131.285156 130.84375 131.339844 130.953125 C 131.378906 131.007812 131.414062 131.082031 131.449219 131.136719 C 131.503906 131.226562 131.558594 131.335938 131.613281 131.425781 C 131.652344 131.5 131.6875 131.574219 131.722656 131.644531 C 131.777344 131.738281 131.816406 131.828125 131.871094 131.9375 C 131.90625 132.011719 131.941406 132.082031 131.980469 132.15625 C 132.035156 132.246094 132.070312 132.339844 132.125 132.429688 C 132.160156 132.503906 132.199219 132.59375 132.234375 132.667969 C 132.269531 132.757812 132.324219 132.851562 132.363281 132.941406 C 132.398438 133.03125 132.433594 133.105469 132.472656 133.195312 C 132.507812 133.289062 132.542969 133.378906 132.597656 133.46875 C 132.636719 133.5625 132.671875 133.632812 132.707031 133.726562 L 132.816406 134 C 132.855469 134.089844 132.890625 134.179688 132.925781 134.273438 C 132.964844 134.363281 133 134.453125 133.035156 134.546875 C 133.074219 134.636719 133.109375 134.726562 133.128906 134.820312 C 133.164062 134.910156 133.199219 135 133.21875 135.09375 C 133.253906 135.183594 133.292969 135.273438 133.308594 135.367188 C 133.347656 135.457031 133.363281 135.546875 133.402344 135.640625 C 133.4375 135.730469 133.457031 135.820312 133.492188 135.929688 C 133.527344 136.023438 133.546875 136.113281 133.566406 136.203125 C 133.601562 136.296875 133.621094 136.40625 133.65625 136.496094 C 133.675781 136.585938 133.710938 136.679688 133.730469 136.769531 C 133.746094 136.859375 133.785156 136.96875 133.800781 137.0625 C 133.820312 137.152344 133.839844 137.242188 133.875 137.335938 C 133.894531 137.425781 133.910156 137.535156 133.949219 137.644531 C 133.964844 137.738281 133.984375 137.828125 134.003906 137.917969 C 134.019531 138.027344 134.039062 138.121094 134.058594 138.230469 C 134.074219 138.320312 134.09375 138.410156 134.113281 138.503906 C 134.128906 138.613281 134.148438 138.722656 134.167969 138.8125 C 134.183594 138.902344 134.203125 138.996094 134.203125 139.085938 C 134.222656 139.195312 134.238281 139.304688 134.238281 139.414062 C 134.257812 139.503906 134.257812 139.597656 134.277344 139.6875 C 134.292969 139.796875 134.292969 139.90625 134.3125 140.015625 C 134.332031 140.105469 134.332031 140.199219 134.347656 140.289062 C 134.367188 140.398438 134.367188 140.507812 134.386719 140.636719 C 134.386719 140.726562 134.402344 140.800781 134.402344 140.890625 C 134.421875 141.019531 134.421875 141.128906 134.421875 141.253906 C 134.421875 141.328125 134.441406 141.417969 134.441406 141.492188 C 134.441406 141.621094 134.457031 141.765625 134.457031 141.894531 C 134.457031 141.96875 134.457031 142.023438 134.457031 142.09375 C 134.457031 142.296875 134.457031 142.496094 134.457031 142.714844 C 134.457031 142.914062 134.457031 143.117188 134.457031 143.335938 C 134.457031 143.40625 134.457031 143.460938 134.457031 143.535156 C 134.457031 143.664062 134.441406 143.808594 134.441406 143.9375 C 134.441406 144.007812 134.421875 144.101562 134.421875 144.171875 C 134.421875 144.300781 134.402344 144.410156 134.402344 144.539062 C 134.402344 144.628906 134.386719 144.703125 134.386719 144.792969 C 134.367188 144.902344 134.367188 145.011719 134.347656 145.140625 C 134.347656 145.230469 134.332031 145.320312 134.3125 145.414062 C 134.292969 145.523438 134.292969 145.632812 134.277344 145.742188 C 134.257812 145.832031 134.257812 145.921875 134.238281 146.015625 C 134.222656 146.125 134.203125 146.234375 134.203125 146.34375 C 134.183594 146.433594 134.167969 146.527344 134.167969 146.617188 C 134.148438 146.726562 134.128906 146.835938 134.113281 146.925781 C 134.09375 147.019531 134.074219 147.109375 134.058594 147.199219 C 134.039062 147.308594 134.019531 147.402344 134.003906 147.511719 C 133.984375 147.601562 133.964844 147.691406 133.949219 147.785156 C 133.929688 147.894531 133.910156 147.984375 133.875 148.09375 C 133.855469 148.183594 133.839844 148.277344 133.800781 148.367188 C 133.785156 148.457031 133.746094 148.566406 133.730469 148.660156 C 133.710938 148.75 133.675781 148.839844 133.65625 148.933594 C 133.636719 149.023438 133.601562 149.132812 133.582031 149.222656 C 133.566406 149.316406 133.527344 149.40625 133.511719 149.496094 C 133.492188 149.589844 133.457031 149.679688 133.417969 149.789062 C 133.402344 149.878906 133.363281 149.972656 133.328125 150.0625 C 133.292969 150.152344 133.273438 150.246094 133.238281 150.335938 C 133.199219 150.425781 133.183594 150.519531 133.144531 150.609375 C 133.109375 150.699219 133.074219 150.792969 133.054688 150.882812 C 133.019531 150.976562 132.980469 151.066406 132.945312 151.15625 C 132.910156 151.25 132.871094 151.339844 132.835938 151.429688 L 132.726562 151.703125 C 132.691406 151.796875 132.652344 151.867188 132.617188 151.960938 C 132.582031 152.050781 132.542969 152.140625 132.488281 152.234375 C 132.453125 152.324219 132.417969 152.398438 132.378906 152.488281 C 132.34375 152.578125 132.289062 152.671875 132.253906 152.761719 C 132.214844 152.835938 132.179688 152.925781 132.144531 153 C 132.105469 153.089844 132.050781 153.179688 131.996094 153.273438 C 131.960938 153.34375 131.925781 153.417969 131.886719 153.507812 C 131.832031 153.601562 131.796875 153.710938 131.742188 153.800781 C 131.707031 153.875 131.667969 153.945312 131.632812 154.019531 C 131.578125 154.109375 131.523438 154.21875 131.46875 154.3125 C 131.433594 154.367188 131.394531 154.4375 131.359375 154.492188 C 131.304688 154.601562 131.230469 154.710938 131.175781 154.820312 C 131.160156 154.859375 131.140625 154.894531 131.105469 154.929688 C 130.757812 155.515625 130.375 156.082031 129.972656 156.644531 C 129.953125 156.664062 129.9375 156.699219 129.917969 156.71875 C 129.828125 156.828125 129.753906 156.957031 129.664062 157.066406 C 129.644531 157.101562 129.609375 157.136719 129.589844 157.175781 C 129.5 157.285156 129.425781 157.394531 129.335938 157.503906 C 129.296875 157.539062 129.261719 157.59375 129.242188 157.628906 C 129.152344 157.738281 129.078125 157.832031 128.988281 157.941406 C 128.953125 157.976562 128.914062 158.03125 128.878906 158.066406 C 128.789062 158.175781 128.714844 158.269531 128.625 158.378906 C 128.585938 158.414062 128.550781 158.46875 128.515625 158.503906 C 128.421875 158.597656 128.332031 158.707031 128.242188 158.796875 C 128.203125 158.832031 128.167969 158.886719 128.132812 158.925781 C 128.039062 159.015625 127.949219 159.125 127.859375 159.214844 C 127.820312 159.253906 127.785156 159.289062 127.75 159.34375 C 127.65625 159.433594 127.566406 159.542969 127.457031 159.636719 C 127.421875 159.671875 127.382812 159.707031 127.347656 159.746094 C 127.257812 159.835938 127.148438 159.929688 127.054688 160.039062 C 127.019531 160.074219 126.984375 160.109375 126.945312 160.148438 C 126.835938 160.238281 126.746094 160.328125 126.65625 160.421875 C 126.617188 160.457031 126.582031 160.492188 126.546875 160.53125 C 126.4375 160.621094 126.34375 160.710938 126.234375 160.804688 C 126.199219 160.839844 126.160156 160.875 126.125 160.894531 C 126.015625 160.984375 125.90625 161.078125 125.796875 161.167969 C 125.761719 161.203125 125.722656 161.222656 125.6875 161.257812 C 125.578125 161.351562 125.46875 161.441406 125.339844 161.53125 L 125.25 161.605469 C 125.121094 161.695312 125.011719 161.789062 124.886719 161.878906 C 124.847656 161.898438 124.832031 161.914062 124.792969 161.953125 C 124.667969 162.042969 124.539062 162.132812 124.410156 162.226562 C 124.394531 162.242188 124.355469 162.261719 124.339844 162.28125 C 124.210938 162.371094 124.066406 162.460938 123.9375 162.554688 C 123.917969 162.570312 123.902344 162.570312 123.882812 162.589844 C 123.738281 162.679688 123.589844 162.789062 123.445312 162.882812 C 123.445312 162.882812 123.425781 162.882812 123.425781 162.898438 C 121.203125 164.339844 118.742188 165.433594 116.097656 166.128906 C 116.097656 166.128906 116.078125 166.128906 116.078125 166.128906 C 115.894531 166.183594 115.714844 166.21875 115.53125 166.253906 C 115.511719 166.253906 115.511719 166.253906 115.511719 166.253906 C 115.332031 166.292969 115.148438 166.347656 114.964844 166.382812 C 114.949219 166.382812 114.949219 166.382812 114.929688 166.382812 C 114.746094 166.417969 114.566406 166.457031 114.382812 166.492188 C 114.363281 166.492188 114.363281 166.492188 114.347656 166.492188 C 114.164062 166.527344 113.980469 166.566406 113.800781 166.582031 C 113.78125 166.582031 113.78125 166.582031 113.761719 166.582031 C 113.582031 166.621094 113.398438 166.636719 113.199219 166.675781 C 113.179688 166.675781 113.179688 166.675781 113.160156 166.675781 C 112.980469 166.691406 112.777344 166.730469 112.59375 166.746094 C 112.59375 166.746094 112.578125 166.746094 112.578125 166.746094 C 112.375 166.765625 112.195312 166.785156 111.992188 166.800781 C 111.992188 166.800781 111.992188 166.800781 111.976562 166.800781 C 111.210938 166.875 110.445312 166.910156 109.660156 166.910156 C 95.929688 166.910156 84.789062 156.082031 84.789062 142.695312 C 84.789062 129.367188 95.910156 118.515625 109.640625 118.515625 Z M 65.058594 226.554688 L 65.058594 212.113281 C 65.039062 210.582031 65.039062 209.03125 65.039062 207.5 C 65.039062 189.484375 79.300781 174.863281 96.878906 174.863281 L 119.632812 174.863281 C 119.90625 174.863281 120.179688 174.863281 120.453125 174.863281 C 134.113281 175.226562 145.617188 184.378906 149.792969 197.015625 C 150.871094 200.296875 151.472656 203.816406 151.472656 207.484375 C 151.472656 209.015625 151.472656 210.566406 151.453125 212.097656 L 151.488281 212.097656 L 151.488281 226.539062 L 65.058594 226.539062 Z M 294.175781 248.054688 L 113.945312 248.054688 L 113.945312 241.984375 L 294.175781 241.984375 Z M 294.320312 191.527344 L 171.546875 191.527344 L 171.546875 185.457031 L 294.320312 185.457031 Z M 294.320312 176.941406 L 171.546875 176.941406 L 171.546875 170.867188 L 294.320312 170.867188 Z M 294.320312 162.351562 L 171.546875 162.351562 L 171.546875 156.28125 L 294.320312 156.28125 Z M 294.320312 147.164062 L 171.546875 147.164062 L 171.546875 141.089844 L 294.320312 141.089844 Z M 294.320312 147.164062 " fill-opacity="1" fill-rule="nonzero"/></g></svg>