<svg xmlns="http://www.w3.org/2000/svg" xmlns:xlink="http://www.w3.org/1999/xlink" width="24" zoomAndPan="magnify" viewBox="0 0 375 374.999991" height="24" preserveAspectRatio="xMidYMid meet" version="1.0"><defs><clipPath id="fb148fadda"><path d="M 47.410156 47.410156 L 327.910156 47.410156 L 327.910156 327.910156 L 47.410156 327.910156 Z M 47.410156 47.410156 " clip-rule="nonzero"/></clipPath></defs><g clip-path="url(#fb148fadda)"><path fill="#a6a6a6" d="M 187.496094 47.410156 C 110.253906 47.410156 47.410156 110.253906 47.410156 187.496094 C 47.410156 264.742188 110.253906 327.582031 187.496094 327.582031 C 264.742188 327.582031 327.582031 264.742188 327.582031 187.496094 C 327.582031 110.25 264.742188 47.410156 187.496094 47.410156 Z M 187.496094 300.46875 C 125.203125 300.46875 74.523438 249.789062 74.523438 187.496094 C 74.523438 125.203125 125.203125 74.523438 187.496094 74.523438 C 249.789062 74.523438 300.46875 125.203125 300.46875 187.496094 C 300.46875 249.789062 249.789062 300.46875 187.496094 300.46875 Z M 187.496094 300.46875 " fill-opacity="1" fill-rule="nonzero"/></g><path fill="#a6a6a6" d="M 187.496094 143.21875 C 180.007812 143.21875 173.941406 149.289062 173.941406 156.773438 L 173.941406 256.851562 C 173.941406 264.335938 180.007812 270.410156 187.496094 270.410156 C 194.984375 270.410156 201.054688 264.335938 201.054688 256.851562 L 201.054688 156.773438 C 201.054688 149.289062 194.984375 143.21875 187.496094 143.21875 Z M 187.496094 143.21875 " fill-opacity="1" fill-rule="nonzero"/><path fill="#a6a6a6" d="M 187.496094 104.585938 C 180.007812 104.585938 173.941406 110.65625 173.941406 118.140625 L 173.941406 118.1875 C 173.941406 125.671875 180.007812 131.726562 187.496094 131.726562 C 194.984375 131.726562 201.054688 125.625 201.054688 118.140625 C 201.054688 110.65625 194.984375 104.585938 187.496094 104.585938 Z M 187.496094 104.585938 " fill-opacity="1" fill-rule="nonzero"/></svg>