<svg xmlns="http://www.w3.org/2000/svg" xmlns:xlink="http://www.w3.org/1999/xlink" width="24" zoomAndPan="magnify" viewBox="0 0 375 374.999991" height="24" preserveAspectRatio="xMidYMid meet" version="1.0"><defs><clipPath id="f999bc9ea1"><path d="M 71.097656 209 L 303.597656 209 L 303.597656 304.035156 L 71.097656 304.035156 Z M 71.097656 209 " clip-rule="nonzero"/></clipPath><clipPath id="745c251552"><path d="M 71.097656 209 L 303.597656 209 L 303.597656 304 L 71.097656 304 Z M 71.097656 209 " clip-rule="nonzero"/></clipPath><clipPath id="9cef39699f"><path d="M 71.097656 161 L 303.597656 161 L 303.597656 254 L 71.097656 254 Z M 71.097656 161 " clip-rule="nonzero"/></clipPath><clipPath id="8335388fac"><path d="M 71.097656 162 L 303.597656 162 L 303.597656 254 L 71.097656 254 Z M 71.097656 162 " clip-rule="nonzero"/></clipPath><clipPath id="701d8ef15b"><path d="M 71.097656 114 L 303.597656 114 L 303.597656 207 L 71.097656 207 Z M 71.097656 114 " clip-rule="nonzero"/></clipPath><clipPath id="ddd0b26d9d"><path d="M 71.097656 115 L 303.597656 115 L 303.597656 207 L 71.097656 207 Z M 71.097656 115 " clip-rule="nonzero"/></clipPath><clipPath id="5270b4b2c5"><path d="M 71.097656 70.785156 L 303.597656 70.785156 L 303.597656 274 L 71.097656 274 Z M 71.097656 70.785156 " clip-rule="nonzero"/></clipPath><clipPath id="3f2b1ebb00"><path d="M 71.097656 71 L 303.597656 71 L 303.597656 274 L 71.097656 274 Z M 71.097656 71 " clip-rule="nonzero"/></clipPath></defs><g clip-path="url(#f999bc9ea1)"><path fill="#d9d9d9" d="M 187.496094 304.210938 C 156.46875 304.210938 127.289062 299.632812 105.335938 291.316406 C 83.269531 282.960938 71.117188 271.800781 71.113281 259.898438 L 71.113281 209.472656 C 71.113281 209.269531 71.28125 209.101562 71.484375 209.101562 C 71.691406 209.101562 71.859375 209.269531 71.859375 209.472656 C 71.859375 218.414062 79.046875 227.019531 92.644531 234.355469 C 114.3125 246.054688 149.773438 253.042969 187.496094 253.042969 C 225.21875 253.042969 260.679688 246.054688 282.351562 234.355469 C 295.949219 227.019531 303.136719 218.414062 303.136719 209.472656 C 303.136719 209.269531 303.304688 209.101562 303.507812 209.101562 C 303.714844 209.101562 303.882812 209.269531 303.882812 209.472656 L 303.882812 259.898438 C 303.878906 271.800781 291.726562 282.960938 269.660156 291.316406 C 247.707031 299.632812 218.527344 304.210938 187.496094 304.210938 Z M 280.851562 249.503906 C 274.347656 249.503906 269.054688 254.796875 269.054688 261.300781 C 269.054688 267.804688 274.347656 273.09375 280.851562 273.09375 C 287.355469 273.09375 292.644531 267.804688 292.644531 261.300781 C 292.644531 254.796875 287.355469 249.503906 280.851562 249.503906 Z M 280.851562 249.503906 " fill-opacity="1" fill-rule="nonzero"/></g><g clip-path="url(#745c251552)"><path fill="#d9d9d9" d="M 282.527344 234.683594 C 261.546875 246.011719 226.804688 253.414062 187.496094 253.414062 C 148.1875 253.414062 113.445312 246.011719 92.464844 234.683594 C 79.242188 227.546875 71.484375 218.855469 71.484375 209.472656 L 71.484375 259.898438 L 71.488281 259.898438 C 71.492188 284.167969 123.429688 303.839844 187.496094 303.839844 C 251.566406 303.839844 303.503906 284.167969 303.507812 259.898438 L 303.507812 209.472656 C 303.507812 218.855469 295.753906 227.546875 282.527344 234.683594 Z M 280.851562 273.464844 C 274.128906 273.464844 268.683594 268.019531 268.683594 261.300781 C 268.683594 254.578125 274.128906 249.132812 280.851562 249.132812 C 287.570312 249.132812 293.015625 254.578125 293.015625 261.300781 C 293.015625 268.019531 287.570312 273.464844 280.851562 273.464844 Z M 280.851562 273.464844 " fill-opacity="1" fill-rule="nonzero"/></g><g clip-path="url(#9cef39699f)"><path fill="#a6a6a6" d="M 187.496094 253.785156 C 149.65625 253.785156 114.0625 246.765625 92.289062 235.007812 C 78.4375 227.535156 71.113281 218.707031 71.113281 209.472656 L 71.113281 162.289062 C 71.113281 162.085938 71.28125 161.917969 71.484375 161.917969 C 71.691406 161.917969 71.859375 162.085938 71.859375 162.289062 C 71.859375 171.230469 79.046875 179.835938 92.644531 187.171875 C 114.3125 198.871094 149.773438 205.859375 187.496094 205.859375 C 225.21875 205.859375 260.679688 198.871094 282.351562 187.171875 C 295.949219 179.835938 303.136719 171.230469 303.136719 162.289062 C 303.136719 162.085938 303.304688 161.917969 303.507812 161.917969 C 303.714844 161.917969 303.882812 162.085938 303.882812 162.289062 L 303.882812 209.472656 C 303.882812 218.707031 296.558594 227.535156 282.707031 235.007812 C 260.929688 246.765625 225.339844 253.785156 187.496094 253.785156 Z M 280.851562 202.320312 C 274.347656 202.320312 269.054688 207.613281 269.054688 214.117188 C 269.054688 220.621094 274.347656 225.910156 280.851562 225.910156 C 287.355469 225.910156 292.644531 220.621094 292.644531 214.117188 C 292.644531 207.613281 287.355469 202.320312 280.851562 202.320312 Z M 280.851562 202.320312 " fill-opacity="1" fill-rule="nonzero"/></g><g clip-path="url(#8335388fac)"><path fill="#a6a6a6" d="M 282.527344 187.5 C 261.546875 198.828125 226.804688 206.230469 187.496094 206.230469 C 148.1875 206.230469 113.445312 198.828125 92.464844 187.5 C 79.242188 180.363281 71.484375 171.671875 71.484375 162.289062 L 71.484375 209.472656 C 71.484375 218.855469 79.242188 227.546875 92.464844 234.683594 C 113.445312 246.011719 148.1875 253.414062 187.496094 253.414062 C 226.804688 253.414062 261.546875 246.011719 282.527344 234.683594 C 295.75 227.546875 303.507812 218.855469 303.507812 209.472656 L 303.507812 162.289062 C 303.507812 171.671875 295.753906 180.363281 282.527344 187.5 Z M 280.851562 226.285156 C 274.128906 226.285156 268.683594 220.835938 268.683594 214.117188 C 268.683594 207.398438 274.128906 201.949219 280.851562 201.949219 C 287.570312 201.949219 293.015625 207.398438 293.015625 214.117188 C 293.015625 220.835938 287.570312 226.285156 280.851562 226.285156 Z M 280.851562 226.285156 " fill-opacity="1" fill-rule="nonzero"/></g><g clip-path="url(#701d8ef15b)"><path fill="#545454" d="M 187.496094 206.601562 C 149.65625 206.601562 114.0625 199.582031 92.289062 187.828125 C 78.4375 180.351562 71.113281 171.523438 71.113281 162.289062 L 71.113281 115.105469 C 71.113281 114.902344 71.28125 114.734375 71.484375 114.734375 C 71.691406 114.734375 71.859375 114.902344 71.859375 115.105469 C 71.859375 124.046875 79.046875 132.652344 92.644531 139.988281 C 114.3125 151.6875 149.773438 158.675781 187.496094 158.675781 C 225.21875 158.675781 260.679688 151.6875 282.351562 139.988281 C 295.949219 132.652344 303.136719 124.046875 303.136719 115.105469 C 303.136719 114.902344 303.304688 114.734375 303.507812 114.734375 C 303.714844 114.734375 303.882812 114.902344 303.882812 115.105469 L 303.882812 162.289062 C 303.882812 171.523438 296.558594 180.351562 282.707031 187.828125 C 260.929688 199.582031 225.339844 206.601562 187.496094 206.601562 Z M 280.851562 155.140625 C 274.347656 155.140625 269.054688 160.429688 269.054688 166.933594 C 269.054688 173.4375 274.347656 178.726562 280.851562 178.726562 C 287.355469 178.726562 292.644531 173.4375 292.644531 166.933594 C 292.644531 160.429688 287.355469 155.140625 280.851562 155.140625 Z M 280.851562 155.140625 " fill-opacity="1" fill-rule="nonzero"/></g><g clip-path="url(#ddd0b26d9d)"><path fill="#545454" d="M 282.527344 140.316406 C 261.546875 151.644531 226.804688 159.046875 187.496094 159.046875 C 148.1875 159.046875 113.445312 151.644531 92.464844 140.316406 C 79.242188 133.179688 71.484375 124.488281 71.484375 115.105469 L 71.484375 162.289062 C 71.484375 171.671875 79.242188 180.363281 92.464844 187.5 C 113.445312 198.828125 148.1875 206.230469 187.496094 206.230469 C 226.804688 206.230469 261.546875 198.828125 282.527344 187.5 C 295.75 180.363281 303.507812 171.671875 303.507812 162.289062 L 303.507812 115.105469 C 303.507812 124.488281 295.753906 133.179688 282.527344 140.316406 Z M 280.851562 179.101562 C 274.128906 179.101562 268.683594 173.652344 268.683594 166.933594 C 268.683594 160.214844 274.128906 154.765625 280.851562 154.765625 C 287.570312 154.765625 293.015625 160.214844 293.015625 166.933594 C 293.015625 173.652344 287.570312 179.101562 280.851562 179.101562 Z M 280.851562 179.101562 " fill-opacity="1" fill-rule="nonzero"/></g><g clip-path="url(#5270b4b2c5)"><path fill="#737373" d="M 280.851562 273.839844 C 273.9375 273.839844 268.3125 268.214844 268.3125 261.300781 C 268.3125 254.386719 273.9375 248.761719 280.851562 248.761719 C 287.765625 248.761719 293.390625 254.386719 293.390625 261.300781 C 293.390625 268.214844 287.765625 273.839844 280.851562 273.839844 Z M 280.851562 226.65625 C 273.9375 226.65625 268.3125 221.03125 268.3125 214.117188 C 268.3125 207.203125 273.9375 201.578125 280.851562 201.578125 C 287.765625 201.578125 293.390625 207.203125 293.390625 214.117188 C 293.390625 221.03125 287.765625 226.65625 280.851562 226.65625 Z M 280.851562 179.472656 C 273.9375 179.472656 268.3125 173.847656 268.3125 166.933594 C 268.3125 160.019531 273.9375 154.394531 280.851562 154.394531 C 287.765625 154.394531 293.390625 160.019531 293.390625 166.933594 C 293.390625 173.847656 287.765625 179.472656 280.851562 179.472656 Z M 187.496094 159.417969 C 149.65625 159.417969 114.0625 152.398438 92.289062 140.644531 C 78.4375 133.167969 71.113281 124.339844 71.113281 115.105469 C 71.113281 114.585938 71.132812 114.105469 71.171875 113.644531 C 72.152344 102.054688 84.730469 91.25 106.589844 83.214844 C 128.390625 75.199219 157.125 70.785156 187.496094 70.785156 C 217.871094 70.785156 246.601562 75.199219 268.40625 83.214844 C 290.265625 91.25 302.839844 102.054688 303.820312 113.644531 C 303.863281 114.105469 303.882812 114.585938 303.882812 115.105469 C 303.882812 124.339844 296.558594 133.167969 282.707031 140.644531 C 260.929688 152.398438 225.339844 159.417969 187.496094 159.417969 Z M 187.496094 159.417969 " fill-opacity="1" fill-rule="nonzero"/></g><g clip-path="url(#3f2b1ebb00)"><path fill="#737373" d="M 71.484375 115.105469 C 71.484375 114.625 71.503906 114.15625 71.542969 113.675781 C 73.539062 90.066406 124.691406 71.15625 187.496094 71.15625 C 250.304688 71.15625 301.453125 90.066406 303.449219 113.675781 C 303.492188 114.15625 303.507812 114.625 303.507812 115.105469 C 303.507812 124.488281 295.753906 133.179688 282.527344 140.316406 C 261.546875 151.644531 226.804688 159.046875 187.496094 159.046875 C 148.1875 159.046875 113.445312 151.644531 92.464844 140.316406 C 79.242188 133.179688 71.484375 124.488281 71.484375 115.105469 Z M 280.851562 154.765625 C 274.128906 154.765625 268.683594 160.214844 268.683594 166.933594 C 268.683594 173.652344 274.128906 179.101562 280.851562 179.101562 C 287.570312 179.101562 293.015625 173.652344 293.015625 166.933594 C 293.015625 160.214844 287.570312 154.765625 280.851562 154.765625 Z M 280.851562 201.949219 C 274.128906 201.949219 268.683594 207.398438 268.683594 214.117188 C 268.683594 220.835938 274.128906 226.285156 280.851562 226.285156 C 287.570312 226.285156 293.015625 220.835938 293.015625 214.117188 C 293.015625 207.398438 287.570312 201.949219 280.851562 201.949219 Z M 280.851562 249.132812 C 274.128906 249.132812 268.683594 254.578125 268.683594 261.300781 C 268.683594 268.019531 274.128906 273.464844 280.851562 273.464844 C 287.570312 273.464844 293.015625 268.019531 293.015625 261.300781 C 293.015625 254.578125 287.570312 249.132812 280.851562 249.132812 Z M 280.851562 249.132812 " fill-opacity="1" fill-rule="nonzero"/></g></svg>